<svg width="25" height="25" viewBox="0 0 25 25" fill="none" xmlns="http://www.w3.org/2000/svg">
<path d="M10.2393 0.307123C6.25356 1.01715 2.94233 3.57323 0.959687 7.44793C0.714411 7.93481 0.550894 8.40139 0.612213 8.46225C0.673532 8.52311 0.591774 8.78683 0.407817 9.07084C-0.0622954 9.78087 -0.164494 15.8059 0.305618 15.8059C0.366937 15.8059 0.79617 15.3596 1.2254 14.8322C2.45178 13.3716 4.35267 11.8907 4.7819 12.0529C5.0885 12.1747 5.04762 12.2558 4.49575 12.7427C3.28981 13.8179 1.16408 17.1245 1.14364 17.9563C1.14364 18.2809 2.77882 20.6544 3.4942 21.405C4.86366 22.7844 7.72521 24.3059 9.76918 24.7117C10.4028 24.8537 11.6292 24.9754 12.4877 24.9957C13.8367 25.0159 14.1228 24.9754 14.3068 24.6508C14.8791 23.6973 16.1463 21.7701 16.2485 21.689C16.3099 21.6281 16.6369 21.2427 16.9435 20.837C17.7611 19.7415 19.7642 17.6317 19.9686 17.6317C20.316 17.6317 20.1321 18.0171 19.0283 19.6401C17.7202 21.5064 16.8209 23.3322 16.9231 23.9002C16.9844 24.2654 17.0661 24.2451 18.2516 23.677C20.6431 22.5004 22.5031 20.5935 23.7703 17.9766C24.547 16.3942 24.8128 15.2988 24.9763 12.9658C25.1194 11.1401 24.6084 8.80712 23.6273 6.9002L23.0141 5.66273L21.3585 6.27132C20.4387 6.59591 19.2941 7.10307 18.7831 7.40736C16.7391 8.58397 17.7815 6.92049 20.5613 4.56727L21.4811 3.79638L20.5613 3.00521C19.5802 2.17347 17.2092 0.956289 15.8806 0.591133C15.1448 0.408556 14.9404 0.449129 13.571 1.09829C12.7125 1.48373 11.3635 2.39662 10.4641 3.14722C9.38083 4.08039 8.80852 4.42526 8.66544 4.28326C8.52236 4.14125 8.5428 3.95867 8.68588 3.65438C8.93115 3.20808 11.4861 0.956289 12.1811 0.591133C12.6103 0.367983 12.5694 -0.0377445 12.1197 0.0028286C11.9767 0.0231152 11.1386 0.165119 10.2393 0.307123ZM9.7283 1.26058C9.7283 1.30116 9.5239 1.56488 9.29907 1.8286C8.2362 3.0255 7.88873 3.59352 7.92961 4.10068C7.95005 4.40498 8.09313 4.64841 8.2362 4.64841C8.37928 4.64841 8.50192 4.72956 8.50192 4.85128C8.50192 4.95271 8.645 5.05414 8.80851 5.05414C9.21731 5.05414 9.91226 4.56727 12.1402 2.78206C12.7534 2.29519 14.6543 1.36202 14.7769 1.48373C14.8382 1.52431 15.1039 1.50402 15.3696 1.40259C15.6354 1.30116 15.9011 1.30116 15.9624 1.3823C16.0033 1.48374 16.3712 1.62574 16.7391 1.6866C17.107 1.74746 17.618 1.99089 17.8428 2.21404C18.0881 2.41691 18.3334 2.53863 18.3947 2.47777C18.456 2.39662 18.5174 2.45748 18.5174 2.59949C18.5174 2.74149 18.5787 2.80235 18.6809 2.74149C18.7626 2.70092 19.1305 2.90378 19.4985 3.18779L20.1525 3.73553L18.6195 5.29758C17.0866 6.85963 16.8413 7.40736 17.291 8.0971C17.3932 8.25939 17.4954 8.32025 17.4954 8.2391C17.4954 8.13767 17.6384 8.21882 17.8224 8.4014C18.0268 8.58397 18.2312 8.64483 18.2925 8.5434C18.456 8.29996 20.9088 7.18421 21.849 6.92049C22.6053 6.71762 22.6257 6.71762 23.0141 7.46822C23.6068 8.62454 24.2405 11.3632 24.2405 12.7021C24.22 14.7713 23.4024 17.4491 22.4009 18.7272C22.1352 19.072 22.1352 19.0923 22.4009 18.9503C22.9119 18.646 21.0519 20.7355 20.1321 21.4861C19.3349 22.1353 18.1086 22.8047 18.1086 22.5816C18.1086 22.541 18.3334 22.1353 18.6195 21.689C18.9057 21.2427 19.1305 20.7761 19.1305 20.6544C19.1305 20.5124 19.1919 20.4718 19.2736 20.5327C19.4576 20.7355 20.7453 18.4229 20.7657 17.8751C20.7657 17.6114 20.684 17.4491 20.5818 17.51C20.4796 17.5911 20.3569 17.5303 20.316 17.3883C20.1116 16.7797 19.4167 17.1245 18.0268 18.4837C17.2297 19.2749 16.5143 19.9241 16.4325 19.9038C16.3303 19.8835 16.269 19.9849 16.269 20.1472C16.269 20.3095 15.758 21.1615 15.1244 22.0338C14.4907 22.9062 13.9184 23.7379 13.8775 23.8596C13.6936 24.3059 10.4232 24.2045 9.01291 23.7176C8.35884 23.4945 7.68433 23.1902 7.52082 23.0685C7.3573 22.9264 7.19378 22.825 7.19378 22.8656C7.1529 23.0076 6.33532 22.6019 5.35421 21.9527C4.7819 21.5875 4.37311 21.2833 4.43443 21.2833C4.49575 21.2833 4.08695 20.8167 3.55552 20.2486C3.02409 19.6806 2.57442 19.1126 2.57442 18.9909C2.57442 18.8692 2.45178 18.6257 2.28826 18.4634C1.81815 17.936 2.4109 16.5768 4.02564 14.467C4.80234 13.4324 5.43597 12.4992 5.43597 12.337C5.43597 11.9921 4.82278 11.3429 4.47531 11.3429C4.02564 11.3429 3.18761 11.9109 1.77727 13.1484C1.40936 13.4933 1.00057 13.7164 0.898368 13.6556C0.714411 13.5339 0.77573 10.6532 1.00057 9.92287C1.04145 9.76058 1.14364 9.33457 1.24584 9.00999C1.49112 8.05653 2.37002 6.43361 2.94233 5.80474C3.22849 5.50044 3.39201 5.257 3.28981 5.257C3.10585 5.257 3.94388 4.46584 5.33377 3.3298C6.33532 2.49806 7.95005 1.64603 8.91071 1.40259C9.29907 1.32145 9.64654 1.2403 9.68742 1.22001C9.70786 1.19973 9.7283 1.2403 9.7283 1.26058Z" fill="black"/>
<path d="M9.7283 1.26058C9.7283 1.30116 9.5239 1.56488 9.29907 1.8286C8.2362 3.0255 7.88873 3.59352 7.92961 4.10068C7.95005 4.40498 8.09313 4.64841 8.2362 4.64841C8.37928 4.64841 8.50192 4.72956 8.50192 4.85128C8.50192 4.95271 8.645 5.05414 8.80851 5.05414C9.21731 5.05414 9.91226 4.56727 12.1402 2.78206C12.7534 2.29519 14.6543 1.36202 14.7769 1.48373C14.8382 1.52431 15.1039 1.50402 15.3696 1.40259C15.6354 1.30116 15.9011 1.30116 15.9624 1.3823C16.0033 1.48374 16.3712 1.62574 16.7391 1.6866C17.107 1.74746 17.618 1.99089 17.8428 2.21404C18.0881 2.41691 18.3334 2.53863 18.3947 2.47777C18.456 2.39662 18.5174 2.45748 18.5174 2.59949C18.5174 2.74149 18.5787 2.80235 18.6809 2.74149C18.7626 2.70092 19.1305 2.90378 19.4985 3.18779L20.1525 3.73553L18.6195 5.29758C17.0866 6.85963 16.8413 7.40736 17.291 8.0971C17.3932 8.25939 17.4954 8.32025 17.4954 8.2391C17.4954 8.13767 17.6384 8.21882 17.8224 8.4014C18.0268 8.58397 18.2312 8.64483 18.2925 8.5434C18.456 8.29996 20.9088 7.18421 21.849 6.92049C22.6053 6.71762 22.6257 6.71762 23.0141 7.46822C23.6068 8.62454 24.2405 11.3632 24.2405 12.7021C24.22 14.7713 23.4024 17.4491 22.4009 18.7272C22.1352 19.072 22.1352 19.0923 22.4009 18.9503C22.9119 18.646 21.0519 20.7355 20.1321 21.4861C19.3349 22.1353 18.1086 22.8047 18.1086 22.5816C18.1086 22.541 18.3334 22.1353 18.6195 21.689C18.9057 21.2427 19.1305 20.7761 19.1305 20.6544C19.1305 20.5124 19.1919 20.4718 19.2736 20.5327C19.4576 20.7355 20.7453 18.4229 20.7657 17.8751C20.7657 17.6114 20.684 17.4491 20.5818 17.51C20.4796 17.5911 20.3569 17.5303 20.316 17.3883C20.1116 16.7797 19.4167 17.1245 18.0268 18.4837C17.2297 19.2749 16.5143 19.9241 16.4325 19.9038C16.3303 19.8835 16.269 19.9849 16.269 20.1472C16.269 20.3095 15.758 21.1615 15.1244 22.0338C14.4907 22.9062 13.9184 23.7379 13.8775 23.8596C13.6936 24.3059 10.4232 24.2045 9.01291 23.7176C8.35884 23.4945 7.68433 23.1902 7.52082 23.0685C7.3573 22.9264 7.19378 22.825 7.19378 22.8656C7.1529 23.0076 6.33532 22.6019 5.35421 21.9527C4.7819 21.5875 4.37311 21.2833 4.43443 21.2833C4.49575 21.2833 4.08695 20.8167 3.55552 20.2486C3.02409 19.6806 2.57442 19.1126 2.57442 18.9909C2.57442 18.8692 2.45178 18.6257 2.28826 18.4634C1.81815 17.936 2.4109 16.5768 4.02564 14.467C4.80234 13.4324 5.43597 12.4992 5.43597 12.337C5.43597 11.9921 4.82278 11.3429 4.47531 11.3429C4.02564 11.3429 3.18761 11.9109 1.77727 13.1484C1.40936 13.4933 1.00057 13.7164 0.898368 13.6556C0.714411 13.5339 0.77573 10.6532 1.00057 9.92287C1.04145 9.76058 1.14364 9.33457 1.24584 9.00999C1.49112 8.05653 2.37002 6.43361 2.94233 5.80474C3.22849 5.50044 3.39201 5.257 3.28981 5.257C3.10585 5.257 3.94388 4.46584 5.33377 3.3298C6.33532 2.49806 7.95005 1.64603 8.91071 1.40259C9.29907 1.32145 9.64654 1.2403 9.68742 1.22001C9.70786 1.19973 9.7283 1.2403 9.7283 1.26058Z" fill="black"/>
</svg>
