<svg width="84" height="29" viewBox="0 0 84 29" fill="none" xmlns="http://www.w3.org/2000/svg">
<path d="M43.4258 23H40.8359L40.6484 22.8828L36.5703 16.0391L35.75 17.293V22.7656L35.5039 23H33.2305L32.9844 22.7656V6.125L33.2305 5.89062H35.5039L35.75 6.125V12.418L40.3086 5.98438L40.5195 5.89062H43.1445L43.3555 6.27734L38.1992 13.6133L43.6484 22.6133L43.4258 23ZM48.3008 23H46.0508L45.8047 22.7656V6.125L46.0508 5.89062H48.5234L48.7344 6.03125L53.293 16.7305V6.125L53.5391 5.89062H55.7656L56.0352 6.125V22.7656L55.7656 23H53.3164L53.1055 22.8594L48.5703 12.3477V22.7656L48.3008 23ZM61.8945 23H59.6445L59.3984 22.7656V6.125L59.6445 5.89062H62.1172L62.3281 6.03125L66.8867 16.7305V6.125L67.1328 5.89062H69.3594L69.6289 6.125V22.7656L69.3594 23H66.9102L66.6992 22.8594L62.1641 12.3477V22.7656L61.8945 23ZM73.2383 5.89062H82.4492L82.7188 6.125V8.36328L82.4492 8.59766H75.7578V13.0859H81.9453L82.1914 13.332V15.5586L81.9453 15.8047H75.7578V20.293H82.4492L82.7188 20.5273V22.7656L82.4492 23H73.2383L72.9922 22.7656V6.125L73.2383 5.89062Z" fill="white"/>
<path d="M10.2393 2.30712C6.25356 3.01715 2.94233 5.57323 0.959687 9.44793C0.714411 9.93481 0.550894 10.4014 0.612213 10.4623C0.673532 10.5231 0.591774 10.7868 0.407817 11.0708C-0.0622954 11.7809 -0.164494 17.8059 0.305618 17.8059C0.366937 17.8059 0.79617 17.3596 1.2254 16.8322C2.45178 15.3716 4.35267 13.8907 4.7819 14.0529C5.0885 14.1747 5.04762 14.2558 4.49575 14.7427C3.28981 15.8179 1.16408 19.1245 1.14364 19.9563C1.14364 20.2809 2.77882 22.6544 3.4942 23.405C4.86366 24.7844 7.72521 26.3059 9.76918 26.7117C10.4028 26.8537 11.6292 26.9754 12.4877 26.9957C13.8367 27.0159 14.1228 26.9754 14.3068 26.6508C14.8791 25.6973 16.1463 23.7701 16.2485 23.689C16.3099 23.6281 16.6369 23.2427 16.9435 22.837C17.7611 21.7415 19.7642 19.6317 19.9686 19.6317C20.316 19.6317 20.1321 20.0171 19.0283 21.6401C17.7202 23.5064 16.8209 25.3322 16.9231 25.9002C16.9844 26.2654 17.0661 26.2451 18.2516 25.677C20.6431 24.5004 22.5031 22.5935 23.7703 19.9766C24.547 18.3942 24.8128 17.2988 24.9763 14.9658C25.1194 13.1401 24.6084 10.8071 23.6273 8.9002L23.0141 7.66273L21.3585 8.27132C20.4387 8.59591 19.2941 9.10307 18.7831 9.40736C16.7391 10.584 17.7815 8.92049 20.5613 6.56727L21.4811 5.79638L20.5613 5.00521C19.5802 4.17347 17.2092 2.95629 15.8806 2.59113C15.1448 2.40856 14.9404 2.44913 13.571 3.09829C12.7125 3.48373 11.3635 4.39662 10.4641 5.14722C9.38083 6.08039 8.80852 6.42526 8.66544 6.28326C8.52236 6.14125 8.5428 5.95867 8.68588 5.65438C8.93115 5.20808 11.4861 2.95629 12.1811 2.59113C12.6103 2.36798 12.5694 1.96226 12.1197 2.00283C11.9767 2.02312 11.1386 2.16512 10.2393 2.30712ZM9.7283 3.26058C9.7283 3.30116 9.5239 3.56488 9.29907 3.8286C8.2362 5.0255 7.88873 5.59352 7.92961 6.10068C7.95005 6.40498 8.09313 6.64841 8.2362 6.64841C8.37928 6.64841 8.50192 6.72956 8.50192 6.85128C8.50192 6.95271 8.645 7.05414 8.80851 7.05414C9.21731 7.05414 9.91226 6.56727 12.1402 4.78206C12.7534 4.29519 14.6543 3.36202 14.7769 3.48373C14.8382 3.52431 15.1039 3.50402 15.3696 3.40259C15.6354 3.30116 15.9011 3.30116 15.9624 3.3823C16.0033 3.48374 16.3712 3.62574 16.7391 3.6866C17.107 3.74746 17.618 3.99089 17.8428 4.21404C18.0881 4.41691 18.3334 4.53863 18.3947 4.47777C18.456 4.39662 18.5174 4.45748 18.5174 4.59949C18.5174 4.74149 18.5787 4.80235 18.6809 4.74149C18.7626 4.70092 19.1305 4.90378 19.4985 5.18779L20.1525 5.73553L18.6195 7.29758C17.0866 8.85963 16.8413 9.40736 17.291 10.0971C17.3932 10.2594 17.4954 10.3202 17.4954 10.2391C17.4954 10.1377 17.6384 10.2188 17.8224 10.4014C18.0268 10.584 18.2312 10.6448 18.2925 10.5434C18.456 10.3 20.9088 9.18421 21.849 8.92049C22.6053 8.71762 22.6257 8.71762 23.0141 9.46822C23.6068 10.6245 24.2405 13.3632 24.2405 14.7021C24.22 16.7713 23.4024 19.4491 22.4009 20.7272C22.1352 21.072 22.1352 21.0923 22.4009 20.9503C22.9119 20.646 21.0519 22.7355 20.1321 23.4861C19.3349 24.1353 18.1086 24.8047 18.1086 24.5816C18.1086 24.541 18.3334 24.1353 18.6195 23.689C18.9057 23.2427 19.1305 22.7761 19.1305 22.6544C19.1305 22.5124 19.1919 22.4718 19.2736 22.5327C19.4576 22.7355 20.7453 20.4229 20.7657 19.8751C20.7657 19.6114 20.684 19.4491 20.5818 19.51C20.4796 19.5911 20.3569 19.5303 20.316 19.3883C20.1116 18.7797 19.4167 19.1245 18.0268 20.4837C17.2297 21.2749 16.5143 21.9241 16.4325 21.9038C16.3303 21.8835 16.269 21.9849 16.269 22.1472C16.269 22.3095 15.758 23.1615 15.1244 24.0338C14.4907 24.9062 13.9184 25.7379 13.8775 25.8596C13.6936 26.3059 10.4232 26.2045 9.01291 25.7176C8.35884 25.4945 7.68433 25.1902 7.52082 25.0685C7.3573 24.9264 7.19378 24.825 7.19378 24.8656C7.1529 25.0076 6.33532 24.6019 5.35421 23.9527C4.7819 23.5875 4.37311 23.2833 4.43443 23.2833C4.49575 23.2833 4.08695 22.8167 3.55552 22.2486C3.02409 21.6806 2.57442 21.1126 2.57442 20.9909C2.57442 20.8692 2.45178 20.6257 2.28826 20.4634C1.81815 19.936 2.4109 18.5768 4.02564 16.467C4.80234 15.4324 5.43597 14.4992 5.43597 14.337C5.43597 13.9921 4.82278 13.3429 4.47531 13.3429C4.02564 13.3429 3.18761 13.9109 1.77727 15.1484C1.40936 15.4933 1.00057 15.7164 0.898368 15.6556C0.714411 15.5339 0.77573 12.6532 1.00057 11.9229C1.04145 11.7606 1.14364 11.3346 1.24584 11.01C1.49112 10.0565 2.37002 8.43361 2.94233 7.80474C3.22849 7.50044 3.39201 7.257 3.28981 7.257C3.10585 7.257 3.94388 6.46584 5.33377 5.3298C6.33532 4.49806 7.95005 3.64603 8.91071 3.40259C9.29907 3.32145 9.64654 3.2403 9.68742 3.22001C9.70786 3.19973 9.7283 3.2403 9.7283 3.26058Z" fill="white"/>
<path d="M9.7283 3.26058C9.7283 3.30116 9.5239 3.56488 9.29907 3.8286C8.2362 5.0255 7.88873 5.59352 7.92961 6.10068C7.95005 6.40498 8.09313 6.64841 8.2362 6.64841C8.37928 6.64841 8.50192 6.72956 8.50192 6.85128C8.50192 6.95271 8.645 7.05414 8.80851 7.05414C9.21731 7.05414 9.91226 6.56727 12.1402 4.78206C12.7534 4.29519 14.6543 3.36202 14.7769 3.48373C14.8382 3.52431 15.1039 3.50402 15.3696 3.40259C15.6354 3.30116 15.9011 3.30116 15.9624 3.3823C16.0033 3.48374 16.3712 3.62574 16.7391 3.6866C17.107 3.74746 17.618 3.99089 17.8428 4.21404C18.0881 4.41691 18.3334 4.53863 18.3947 4.47777C18.456 4.39662 18.5174 4.45748 18.5174 4.59949C18.5174 4.74149 18.5787 4.80235 18.6809 4.74149C18.7626 4.70092 19.1305 4.90378 19.4985 5.18779L20.1525 5.73553L18.6195 7.29758C17.0866 8.85963 16.8413 9.40736 17.291 10.0971C17.3932 10.2594 17.4954 10.3202 17.4954 10.2391C17.4954 10.1377 17.6384 10.2188 17.8224 10.4014C18.0268 10.584 18.2312 10.6448 18.2925 10.5434C18.456 10.3 20.9088 9.18421 21.849 8.92049C22.6053 8.71762 22.6257 8.71762 23.0141 9.46822C23.6068 10.6245 24.2405 13.3632 24.2405 14.7021C24.22 16.7713 23.4024 19.4491 22.4009 20.7272C22.1352 21.072 22.1352 21.0923 22.4009 20.9503C22.9119 20.646 21.0519 22.7355 20.1321 23.4861C19.3349 24.1353 18.1086 24.8047 18.1086 24.5816C18.1086 24.541 18.3334 24.1353 18.6195 23.689C18.9057 23.2427 19.1305 22.7761 19.1305 22.6544C19.1305 22.5124 19.1919 22.4718 19.2736 22.5327C19.4576 22.7355 20.7453 20.4229 20.7657 19.8751C20.7657 19.6114 20.684 19.4491 20.5818 19.51C20.4796 19.5911 20.3569 19.5303 20.316 19.3883C20.1116 18.7797 19.4167 19.1245 18.0268 20.4837C17.2297 21.2749 16.5143 21.9241 16.4325 21.9038C16.3303 21.8835 16.269 21.9849 16.269 22.1472C16.269 22.3095 15.758 23.1615 15.1244 24.0338C14.4907 24.9062 13.9184 25.7379 13.8775 25.8596C13.6936 26.3059 10.4232 26.2045 9.01291 25.7176C8.35884 25.4945 7.68433 25.1902 7.52082 25.0685C7.3573 24.9264 7.19378 24.825 7.19378 24.8656C7.1529 25.0076 6.33532 24.6019 5.35421 23.9527C4.7819 23.5875 4.37311 23.2833 4.43443 23.2833C4.49575 23.2833 4.08695 22.8167 3.55552 22.2486C3.02409 21.6806 2.57442 21.1126 2.57442 20.9909C2.57442 20.8692 2.45178 20.6257 2.28826 20.4634C1.81815 19.936 2.4109 18.5768 4.02564 16.467C4.80234 15.4324 5.43597 14.4992 5.43597 14.337C5.43597 13.9921 4.82278 13.3429 4.47531 13.3429C4.02564 13.3429 3.18761 13.9109 1.77727 15.1484C1.40936 15.4933 1.00057 15.7164 0.898368 15.6556C0.714411 15.5339 0.77573 12.6532 1.00057 11.9229C1.04145 11.7606 1.14364 11.3346 1.24584 11.01C1.49112 10.0565 2.37002 8.43361 2.94233 7.80474C3.22849 7.50044 3.39201 7.257 3.28981 7.257C3.10585 7.257 3.94388 6.46584 5.33377 5.3298C6.33532 4.49806 7.95005 3.64603 8.91071 3.40259C9.29907 3.32145 9.64654 3.2403 9.68742 3.22001C9.70786 3.19973 9.7283 3.2403 9.7283 3.26058Z" fill="white"/>
</svg>
